<svg id="Capa_1" enable-background="new 0 0 512 512" height="512" viewBox="0 0 512 512" width="512" xmlns="http://www.w3.org/2000/svg"><g><g><path d="m56.561 64.342h30v81.664h-30z" fill="#a2abb8"/></g><g><path d="m425.439 64.342h30v81.664h-30z" fill="#7e8b96"/></g><g><path d="m143.12 492.159h-143.12v-356.153h143.12l20 187.153z" fill="#c8d2dc"/></g><g><path d="m368.88 136.006h143.12v356.153h-143.12l-20-175.068z" fill="#a2abb8"/></g><g><g><path d="m143.12 72.953v419.206h112.88l20-207-20-238.762z" fill="#dce6eb"/></g><g><path d="m368.88 19.841-112.88 26.556v445.762h112.88z" fill="#c8d2dc"/></g></g><g><path d="m224.133 428.425v63.734h31.867l10-31.867-10-31.867z" fill="#c8d2dc"/><path d="m256 428.425h31.867v63.734h-31.867z" fill="#a2abb8"/></g><g><path d="m190.921 126.619h49.146v30h-49.146z" fill="#c8d2dc"/></g><g><path d="m271.934 126.619h49.146v30h-49.146z" fill="#a2abb8"/></g><g><path d="m190.921 190.354h49.146v30h-49.146z" fill="#c8d2dc"/></g><g><path d="m271.934 190.354h49.146v30h-49.146z" fill="#a2abb8"/></g><g><path d="m190.921 254.088h49.146v30h-49.146z" fill="#c8d2dc"/></g><g><path d="m271.934 254.088h49.146v30h-49.146z" fill="#a2abb8"/></g><g><path d="m46.987 190.354h49.146v30h-49.146z" fill="#a2abb8"/></g><g><path d="m46.987 254.088h49.146v30h-49.146z" fill="#a2abb8"/></g><g><path d="m46.987 317.822h49.146v30h-49.146z" fill="#a2abb8"/></g><g><path d="m415.867 190.354h49.146v30h-49.146z" fill="#7e8b96"/></g><g><path d="m415.867 254.088h49.146v30h-49.146z" fill="#7e8b96"/></g><g><path d="m190.921 317.822h49.146v30h-49.146z" fill="#c8d2dc"/></g><g><path d="m415.867 317.822h49.146v30h-49.146z" fill="#7e8b96"/></g><g><path d="m415.867 381.557h49.146v30h-49.146z" fill="#7e8b96"/></g><g><path d="m46.987 381.557h49.146v30h-49.146z" fill="#a2abb8"/></g><g><path d="m271.934 317.822h49.146v30h-49.146z" fill="#a2abb8"/></g></g></svg>